<svg width="19" height="18" viewBox="0 0 19 18" fill="none" xmlns="http://www.w3.org/2000/svg">
<path d="M14.8994 0.846344C14.4994 0.465447 13.957 0.251465 13.3913 0.251465C12.8257 0.251465 12.2832 0.465447 11.8833 0.846344L9.77473 2.85447C9.76053 2.3249 9.52966 1.82156 9.13135 1.45179C8.73304 1.08203 8.19881 0.875084 7.64258 0.875094H2.7207C2.15505 0.875094 1.61256 1.0891 1.21258 1.47003C0.812597 1.85097 0.587891 2.36762 0.587891 2.90634V15.0938C0.587891 15.6326 0.812597 16.1492 1.21258 16.5302C1.61256 16.9111 2.15505 17.1251 2.7207 17.1251H15.5176C16.0832 17.1251 16.6257 16.9111 17.0257 16.5302C17.4257 16.1492 17.6504 15.6326 17.6504 15.0938V10.4063C17.6504 9.87755 17.434 9.36958 17.047 8.99039C16.66 8.6112 16.133 8.39069 15.578 8.37572L17.6839 6.37072C18.0838 5.98979 18.3085 5.47316 18.3085 4.93447C18.3085 4.39578 18.0838 3.87915 17.6839 3.49822L14.8994 0.846344ZM11.2034 8.37509H9.77539V7.01509L11.2034 8.37509ZM12.8112 1.73009C12.8874 1.65753 12.9778 1.59996 13.0774 1.56069C13.1769 1.52141 13.2836 1.5012 13.3913 1.5012C13.4991 1.5012 13.6058 1.52141 13.7053 1.56069C13.8048 1.59996 13.8953 1.65753 13.9715 1.73009L16.7553 4.38197C16.8315 4.45452 16.8919 4.54065 16.9331 4.63545C16.9744 4.73025 16.9956 4.83186 16.9956 4.93447C16.9956 5.03708 16.9744 5.13869 16.9331 5.23349C16.8919 5.32829 16.8315 5.41442 16.7553 5.48697L13.9715 8.13822C13.8953 8.21079 13.8048 8.26835 13.7053 8.30763C13.6058 8.3469 13.4991 8.36712 13.3913 8.36712C13.2836 8.36712 13.1769 8.3469 13.0774 8.30763C12.9778 8.26835 12.8874 8.21079 12.8112 8.13822L10.0267 5.48697C9.95054 5.41442 9.8901 5.32829 9.84886 5.23349C9.80762 5.13869 9.78639 5.03708 9.78639 4.93447C9.78639 4.83186 9.80762 4.73025 9.84886 4.63545C9.8901 4.54065 9.95054 4.45452 10.0267 4.38197L12.8112 1.73009ZM8.46289 2.90634V8.37509H1.90039V2.90634C1.90039 2.47509 2.26789 2.12509 2.7207 2.12509H7.64258C8.09539 2.12509 8.46289 2.47509 8.46289 2.90634ZM1.90039 15.0938V9.62509H8.46289V15.8751H2.7207C2.26789 15.8751 1.90039 15.5251 1.90039 15.0938ZM9.77539 9.62509H15.5176C15.9704 9.62509 16.3379 9.97509 16.3379 10.4063V15.0938C16.3379 15.5251 15.9704 15.8751 15.5176 15.8751H9.77539V9.62509Z" fill="#171717"/>
</svg>
